<svg width="103" height="70" viewBox="0 0 103 70" fill="none" xmlns="http://www.w3.org/2000/svg">
<rect x="2.16846" width="98.6632" height="70" fill="#E10000"/>
<path d="M11.7059 19H14.4059L18.3059 26.9C18.4392 27.1933 18.5259 27.4133 18.5659 27.56L18.6659 27.9H18.7459L18.8459 27.56C18.8859 27.4133 18.9725 27.1933 19.1059 26.9L23.0059 19H25.7059V33H22.9059V24.7C22.9059 24.2867 22.9192 23.9933 22.9459 23.82L23.0059 23.38H22.9259C22.8592 23.6067 22.8125 23.7533 22.7859 23.82C22.6259 24.22 22.4992 24.5133 22.4059 24.7L19.3059 30.7H17.9059L15.0059 24.9C14.8459 24.5667 14.7192 24.2733 14.6259 24.02C14.5992 23.9533 14.5525 23.8067 14.4859 23.58H14.4059L14.4459 24.02C14.4859 24.54 14.5059 24.8333 14.5059 24.9V33H11.7059V19ZM27.7082 33L31.8082 19H35.0082L39.1082 33H36.3082L35.4082 29.8H31.4082L30.5082 33H27.7082ZM34.9082 28L33.7082 23.8C33.6682 23.6533 33.6282 23.48 33.5882 23.28C33.5482 23.0667 33.5215 22.9133 33.5082 22.82L33.4482 22.3H33.3682L33.2882 22.82C33.2615 22.94 33.2282 23.1067 33.1882 23.32C33.1615 23.52 33.1349 23.68 33.1082 23.8L31.9082 28H34.9082ZM41.1004 19H44.5004C48.6337 19 50.7004 21.3333 50.7004 26C50.7004 30.6667 48.6337 33 44.5004 33H41.1004V19ZM44.5004 31.2C45.2604 31.2 45.8871 31.04 46.3804 30.72C46.8871 30.4 47.2671 29.86 47.5204 29.1C47.7737 28.34 47.9004 27.3067 47.9004 26C47.9004 24.6933 47.7737 23.66 47.5204 22.9C47.2671 22.14 46.8871 21.6 46.3804 21.28C45.8871 20.96 45.2604 20.8 44.5004 20.8H43.9004V31.2H44.5004ZM53.4051 33V19H61.8051V20.8H56.2051V24.8H60.6051V26.6H56.2051V31.2H61.8051V33H53.4051ZM74.7066 33.2C73.1466 33.2 71.94 32.78 71.0866 31.94C70.2333 31.1 69.8066 29.92 69.8066 28.4V19H72.6066V28.4C72.6066 29.4 72.7933 30.1533 73.1666 30.66C73.5533 31.1533 74.0666 31.4 74.7066 31.4C75.3466 31.4 75.8533 31.1533 76.2266 30.66C76.6133 30.1533 76.8066 29.4 76.8066 28.4V19H79.6066V28.4C79.6066 29.92 79.18 31.1 78.3266 31.94C77.4733 32.78 76.2666 33.2 74.7066 33.2ZM82.7996 19H86.7996C88.6796 19 90.0463 19.3867 90.8996 20.16C91.7663 20.9333 92.1996 22.1133 92.1996 23.7C92.1996 25.2867 91.7663 26.4667 90.8996 27.24C90.0463 28.0133 88.6796 28.4 86.7996 28.4H85.5996V33H82.7996V19ZM86.7996 26.6C87.7196 26.6 88.3796 26.38 88.7796 25.94C89.1929 25.4867 89.3996 24.74 89.3996 23.7C89.3996 22.66 89.1929 21.92 88.7796 21.48C88.3796 21.0267 87.7196 20.8 86.7996 20.8H85.5996V26.6H86.7996Z" fill="white"/>
</svg>
