<svg width="30" height="30" viewBox="0 0 30 30" fill="none" xmlns="http://www.w3.org/2000/svg">
<path d="M13.1309 17.8094L18.0099 14.9995L13.1309 12.1895V17.8094Z" fill="#BBBBBB"/>
<path d="M15 0C12.0333 0 9.13319 0.879735 6.66645 2.52796C4.19972 4.17618 2.27713 6.51886 1.14181 9.25975C0.00649929 12.0006 -0.290551 15.0166 0.288228 17.9264C0.867006 20.8361 2.29562 23.5088 4.3934 25.6066C6.49119 27.7044 9.16394 29.133 12.0737 29.7118C14.9834 30.2906 17.9994 29.9935 20.7403 28.8582C23.4812 27.7229 25.8238 25.8003 27.4721 23.3336C29.1203 20.8668 30 17.9667 30 15C30 11.0218 28.4197 7.20644 25.6066 4.3934C22.7936 1.58035 18.9783 0 15 0ZM24.373 15.015C24.3823 16.5266 24.2531 18.0359 23.987 19.524C23.8797 19.9195 23.6708 20.2801 23.381 20.5699C23.0911 20.8598 22.7306 21.0687 22.335 21.176C19.9009 21.4625 17.4508 21.5918 15 21.563C12.5488 21.5934 10.0984 21.4597 7.66501 21.163C7.26946 21.0557 6.90887 20.8468 6.61906 20.5569C6.32926 20.2671 6.12032 19.9065 6.01301 19.511C5.74622 18.0224 5.61701 16.5123 5.62701 15C5.61765 13.4884 5.74686 11.9791 6.01301 10.491C6.12262 10.095 6.33209 9.73368 6.62135 9.4418C6.9106 9.14991 7.26997 8.93719 7.66501 8.824C10.0992 8.5378 12.5493 8.40887 15 8.438C17.4512 8.40729 19.9017 8.54092 22.335 8.838C22.7306 8.94531 23.0911 9.15425 23.381 9.44406C23.6708 9.73386 23.8797 10.0944 23.987 10.49C24.2615 11.9823 24.3908 13.4977 24.373 15.015Z" fill="#BBBBBB"/>
</svg>
