<svg width="30" height="30" viewBox="0 0 30 30" fill="none" xmlns="http://www.w3.org/2000/svg">
<path d="M17.8709 14.9999C17.8709 15.5677 17.7025 16.1228 17.3871 16.595C17.0716 17.0671 16.6232 17.4351 16.0986 17.6524C15.574 17.8697 14.9967 17.9265 14.4398 17.8157C13.8829 17.705 13.3713 17.4315 12.9698 17.03C12.5683 16.6285 12.2949 16.1169 12.1841 15.56C12.0733 15.0031 12.1301 14.4258 12.3474 13.9012C12.5647 13.3766 12.9327 12.9282 13.4049 12.6128C13.877 12.2973 14.4321 12.1289 14.9999 12.1289C15.7614 12.1289 16.4916 12.4314 17.03 12.9698C17.5684 13.5082 17.8709 14.2385 17.8709 14.9999Z" fill="#BBBBBB"/>
<path d="M21.7141 9.92055C21.5709 9.54897 21.3514 9.21152 21.0698 8.92992C20.7882 8.64832 20.4507 8.42882 20.0791 8.28555C19.5669 8.09454 19.0257 7.99305 18.4791 7.98555C17.5711 7.94455 17.2981 7.93555 14.9981 7.93555C12.6981 7.93555 12.4261 7.94455 11.5171 7.98555C10.9706 7.99311 10.4293 8.09459 9.91713 8.28555C9.54562 8.42893 9.20822 8.64847 8.92664 8.93005C8.64505 9.21164 8.42552 9.54903 8.28214 9.92055C8.09114 10.4327 7.98965 10.974 7.98213 11.5206C7.94113 12.4286 7.93213 12.7015 7.93213 15.0015C7.93213 17.3015 7.94113 17.5735 7.98213 18.4825C7.98963 19.0291 8.09112 19.5704 8.28214 20.0826C8.42541 20.4541 8.6449 20.7916 8.9265 21.0732C9.2081 21.3548 9.54555 21.5743 9.91713 21.7175C10.4293 21.9087 10.9705 22.0102 11.5171 22.0175C12.4251 22.0585 12.6971 22.0676 14.9971 22.0676C17.2971 22.0676 17.5701 22.0585 18.4781 22.0175C19.0247 22.0102 19.566 21.9087 20.0781 21.7175C20.4497 21.5743 20.7872 21.3548 21.0688 21.0732C21.3504 20.7916 21.5699 20.4541 21.7131 20.0826C21.9041 19.5703 22.0056 19.0291 22.0131 18.4825C22.0541 17.5745 22.0631 17.3015 22.0631 15.0015C22.0631 12.7015 22.0541 12.4296 22.0131 11.5206C22.0061 10.974 21.9049 10.4328 21.7141 9.92055ZM15.0001 19.4205C14.1254 19.4205 13.2702 19.1611 12.5428 18.6751C11.8155 18.1891 11.2486 17.4984 10.9138 16.6902C10.5791 15.882 10.4915 14.9926 10.6621 14.1347C10.8328 13.2767 11.254 12.4886 11.8726 11.87C12.4912 11.2514 13.2793 10.8302 14.1373 10.6595C14.9952 10.4889 15.8845 10.5765 16.6927 10.9112C17.5009 11.246 18.1917 11.8129 18.6777 12.5403C19.1637 13.2676 19.4231 14.1228 19.4231 14.9975C19.4234 15.5785 19.3092 16.1539 19.087 16.6908C18.8649 17.2276 18.5391 17.7154 18.1284 18.1264C17.7176 18.5373 17.23 18.8633 16.6932 19.0857C16.1565 19.3081 15.5811 19.4225 15.0001 19.4225V19.4205ZM19.6001 11.4335C19.3956 11.4335 19.1957 11.3729 19.0257 11.2593C18.8556 11.1457 18.7231 10.9842 18.6448 10.7952C18.5666 10.6063 18.5461 10.3984 18.586 10.1978C18.6259 9.99725 18.7244 9.813 18.869 9.6684C19.0136 9.52379 19.1978 9.42532 19.3984 9.38542C19.599 9.34552 19.8069 9.366 19.9958 9.44426C20.1848 9.52252 20.3463 9.65505 20.4599 9.82509C20.5735 9.99513 20.6341 10.195 20.6341 10.3996C20.6344 10.5357 20.6078 10.6705 20.5558 10.7963C20.5038 10.9221 20.4275 11.0364 20.3313 11.1327C20.235 11.2289 20.1207 11.3053 19.9949 11.3572C19.8691 11.4092 19.7343 11.4358 19.5981 11.4355L19.6001 11.4335Z" fill="#BBBBBB"/>
<path d="M15 0C12.0333 0 9.13319 0.879735 6.66645 2.52796C4.19972 4.17618 2.27713 6.51886 1.14181 9.25975C0.00649929 12.0006 -0.290551 15.0166 0.288228 17.9264C0.867006 20.8361 2.29562 23.5088 4.3934 25.6066C6.49119 27.7044 9.16394 29.133 12.0737 29.7118C14.9834 30.2906 17.9994 29.9935 20.7403 28.8582C23.4812 27.7229 25.8238 25.8003 27.4721 23.3336C29.1203 20.8668 30 17.9667 30 15C30 11.0218 28.4197 7.20644 25.6066 4.3934C22.7936 1.58035 18.9783 0 15 0V0ZM23.561 18.551C23.5469 19.2656 23.4116 19.9726 23.161 20.642C22.9399 21.2143 22.6017 21.734 22.1678 22.1678C21.734 22.6016 21.2143 22.9399 20.642 23.161C19.9726 23.4115 19.2656 23.5468 18.551 23.561C17.632 23.603 17.339 23.613 15 23.613C12.661 23.613 12.367 23.603 11.449 23.561C10.7344 23.5468 10.0274 23.4115 9.35801 23.161C8.78572 22.9399 8.26598 22.6016 7.83217 22.1678C7.39836 21.734 7.06007 21.2143 6.83901 20.642C6.58836 19.9726 6.4531 19.2656 6.43901 18.551C6.40001 17.633 6.38701 17.339 6.38701 15C6.38701 12.661 6.39701 12.367 6.43901 11.449C6.45314 10.7344 6.58839 10.0274 6.83901 9.358C7.06044 8.78593 7.39887 8.26639 7.83264 7.83263C8.2664 7.39887 8.78594 7.06044 9.35801 6.839C10.0274 6.58848 10.7344 6.45323 11.449 6.439C12.368 6.397 12.661 6.387 15 6.387C17.339 6.387 17.633 6.397 18.551 6.439C19.2656 6.45327 19.9726 6.58852 20.642 6.839C21.2141 7.06033 21.7337 7.39872 22.1675 7.8325C22.6013 8.26627 22.9397 8.78587 23.161 9.358C23.4116 10.0274 23.5469 10.7344 23.561 11.449C23.603 12.368 23.613 12.661 23.613 15C23.613 17.339 23.6 17.633 23.561 18.551Z" fill="#BBBBBB"/>
</svg>
