<svg width="30" height="30" viewBox="0 0 30 30" fill="none" xmlns="http://www.w3.org/2000/svg">
<path d="M30 15C30 12.0333 29.1203 9.13319 27.4721 6.66645C25.8238 4.19972 23.4812 2.27713 20.7403 1.14181C17.9994 0.00649929 14.9834 -0.290551 12.0737 0.288228C9.16394 0.867006 6.49119 2.29562 4.3934 4.3934C2.29562 6.49119 0.867006 9.16394 0.288228 12.0737C-0.290551 14.9834 0.00649929 17.9994 1.14181 20.7403C2.27713 23.4812 4.19972 25.8238 6.66645 27.4721C9.13319 29.1203 12.0333 30 15 30C15.088 30 15.176 30 15.264 29.994V18.322H12.041V14.566H15.264V11.8C15.264 8.59501 17.221 6.84901 20.08 6.84901C21.0451 6.84605 22.0095 6.89646 22.969 7.00001V10.352H21C19.447 10.352 19.143 11.09 19.143 12.174V14.565H22.864L22.378 18.321H19.143V29.421C22.2728 28.5216 25.0249 26.628 26.9835 24.0264C28.9422 21.4248 30.001 18.2565 30 15Z" fill="#BBBBBB"/>
</svg>
