<svg width="14" height="10" viewBox="0 0 14 10" fill="none" xmlns="http://www.w3.org/2000/svg">
<path d="M2.1718 1H11.543C11.8614 1.00664 12.1634 1.11564 12.3831 1.3031C12.6027 1.49057 12.7219 1.74118 12.7145 2V8C12.7219 8.25882 12.6027 8.50943 12.3831 8.6969C12.1634 8.88436 11.8614 8.99336 11.543 9H2.1718C1.85348 8.99336 1.5514 8.88436 1.33179 8.6969C1.11218 8.50943 0.992979 8.25882 1.00032 8V2C0.992979 1.74118 1.11218 1.49057 1.33179 1.3031C1.5514 1.11564 1.85348 1.00664 2.1718 1V1Z" stroke="#BBBBBB" stroke-linecap="round" stroke-linejoin="round"/>
<path d="M12.7147 2L6.85732 5.5L1.00049 2" stroke="#BBBBBB" stroke-linecap="round" stroke-linejoin="round"/>
</svg>
