<svg width="24" height="24" viewBox="0 0 24 24" fill="none" xmlns="http://www.w3.org/2000/svg">
<path d="M15.4999 13.9999H14.7099L14.4299 13.7299C15.5265 12.4523 16.0854 10.7995 15.9894 9.11859C15.8933 7.43766 15.1498 5.85931 13.9148 4.71492C12.6798 3.57054 11.0495 2.94913 9.36613 2.98116C7.68275 3.01319 6.07726 3.69618 4.88672 4.88672C3.69618 6.07726 3.01319 7.68275 2.98116 9.36613C2.94913 11.0495 3.57054 12.6798 4.71492 13.9148C5.85931 15.1498 7.43766 15.8933 9.11859 15.9894C10.7995 16.0854 12.4523 15.5265 13.7299 14.4299L13.9999 14.7099V15.4999L18.9999 20.4899L20.4899 18.9999L15.4999 13.9999ZM9.49992 13.9999C8.60991 13.9999 7.73988 13.736 6.99986 13.2415C6.25983 12.7471 5.68306 12.0443 5.34246 11.222C5.00187 10.3997 4.91275 9.49493 5.08639 8.62201C5.26002 7.7491 5.68861 6.94728 6.31794 6.31794C6.94728 5.68861 7.7491 5.26002 8.62201 5.08639C9.49493 4.91275 10.3997 5.00187 11.222 5.34246C12.0443 5.68306 12.7471 6.25983 13.2415 6.99986C13.736 7.73988 13.9999 8.60991 13.9999 9.49992C14.0007 10.0911 13.8849 10.6766 13.659 11.2229C13.4331 11.7693 13.1017 12.2656 12.6837 12.6837C12.2656 13.1017 11.7693 13.4331 11.2229 13.659C10.6766 13.8849 10.0911 14.0007 9.49992 13.9999Z" fill="#444444"/>
</svg>
