<svg width="24" height="24" viewBox="0 0 24 24" fill="none" xmlns="http://www.w3.org/2000/svg">
<path d="M12 5.9C12.4153 5.9 12.8214 6.02316 13.1667 6.25391C13.512 6.48466 13.7812 6.81264 13.9401 7.19636C14.0991 7.58009 14.1407 8.00233 14.0596 8.40969C13.9786 8.81705 13.7786 9.19123 13.4849 9.48492C13.1912 9.77861 12.817 9.97862 12.4097 10.0596C12.0023 10.1407 11.5801 10.0991 11.1964 9.94015C10.8126 9.7812 10.4847 9.51204 10.2539 9.1667C10.0232 8.82135 9.9 8.41534 9.9 8C9.9 7.44305 10.1212 6.9089 10.5151 6.51508C10.9089 6.12125 11.443 5.9 12 5.9ZM12 14.9C14.97 14.9 18.1 16.36 18.1 17V18.1H5.9V17C5.9 16.36 9.03 14.9 12 14.9ZM12 4C11.2089 4 10.4355 4.2346 9.77772 4.67412C9.11992 5.11365 8.60723 5.73836 8.30448 6.46927C8.00173 7.20017 7.92252 8.00444 8.07686 8.78036C8.2312 9.55629 8.61216 10.269 9.17157 10.8284C9.73098 11.3878 10.4437 11.7688 11.2196 11.9231C11.9956 12.0775 12.7998 11.9983 13.5307 11.6955C14.2616 11.3928 14.8864 10.8801 15.3259 10.2223C15.7654 9.56448 16 8.79113 16 8C16 6.93913 15.5786 5.92172 14.8284 5.17157C14.0783 4.42143 13.0609 4 12 4ZM12 13C9.33 13 4 14.34 4 17V20H20V17C20 14.34 14.67 13 12 13Z" fill="#444444"/>
</svg>
