<svg width="13" height="14" viewBox="0 0 13 14" fill="none" xmlns="http://www.w3.org/2000/svg">
<path d="M11.9987 11.9866V10.2105C12.012 9.92974 11.9232 9.65363 11.7487 9.43324C11.5743 9.21284 11.3259 9.06308 11.0495 9.01162C10.5167 8.93627 9.99491 8.7972 9.49527 8.5974C9.29662 8.51848 9.07869 8.50169 8.87029 8.54924C8.66189 8.5968 8.47282 8.70646 8.32806 8.86374L7.62563 9.61824C6.22008 8.75384 5.07331 7.5268 4.30584 6.06606L5.00828 5.31157C5.15894 5.1447 5.26163 4.94017 5.30547 4.71967C5.3493 4.49916 5.33264 4.27091 5.25726 4.0591C5.07029 3.51952 4.9413 2.96157 4.87247 2.39468C4.8439 2.11934 4.71541 1.86402 4.51131 1.67702C4.30721 1.49002 4.04165 1.38431 3.76487 1.37988H2.10497C1.9492 1.38118 1.79557 1.41633 1.65474 1.4829C1.51391 1.54948 1.38923 1.64588 1.28936 1.76543C1.1847 1.8902 1.1057 2.03441 1.05689 2.18978C1.00808 2.34514 0.990414 2.50862 1.00492 2.67083C1.18171 4.48587 1.76115 6.23863 2.70102 7.80141C3.53406 9.21435 4.66738 10.427 6.02081 11.3536C7.43749 12.3434 9.07681 12.9678 10.793 13.1712C10.9481 13.1853 11.1044 13.1651 11.2509 13.112C11.3973 13.0589 11.5302 12.9743 11.6403 12.8641C11.7554 12.749 11.8463 12.6121 11.9078 12.4614C11.9694 12.3108 12.0003 12.1493 11.9987 11.9866Z" stroke="#BBBBBB" stroke-linecap="round" stroke-linejoin="round"/>
</svg>
